<?xml version="1.0" standalone="no"?>
<svg viewBox="0 0 200 200" xmlns="http://www.w3.org/2000/svg">
  <path fill="#87BFFF" d="M30.1,-59.3C37.4,-48,40.5,-36.6,46.7,-26.7C53,-16.8,62.4,-8.4,67.9,3.2C73.5,14.8,75.2,29.6,67.7,37.4C60.3,45.2,43.7,46,30.8,49.1C18,52.1,9,57.5,-3.4,63.3C-15.7,69.1,-31.5,75.5,-44.6,72.6C-57.6,69.6,-68,57.5,-71.8,43.8C-75.6,30.2,-72.9,15.1,-68.9,2.3C-65,-10.5,-59.9,-21.1,-54.2,-31.4C-48.5,-41.8,-42.2,-51.9,-33,-62.2C-23.9,-72.4,-11.9,-82.8,-0.3,-82.3C11.4,-81.9,22.9,-70.7,30.1,-59.3Z" transform="translate(100 100)" />
</svg>
